<svg width="19" height="17" viewBox="0 0 19 17" fill="none" xmlns="http://www.w3.org/2000/svg">
<path d="M9.5 17L9.16471 16.7138C1.95588 10.7037 0 8.58586 0 5.15152C0 2.28956 2.23529 0 5.02941 0C7.32059 0 8.60588 1.3165 9.5 2.3468C10.3941 1.3165 11.6794 0 13.9706 0C16.7647 0 19 2.28956 19 5.15152C19 8.58586 17.0441 10.7037 9.83529 16.7138L9.5 17ZM5.02941 1.14478C2.85 1.14478 1.11765 2.91919 1.11765 5.15152C1.11765 8.07071 2.90588 10.0168 9.5 15.5118C16.0941 10.0168 17.8824 8.07071 17.8824 5.15152C17.8824 2.91919 16.15 1.14478 13.9706 1.14478C12.0147 1.14478 10.9529 2.3468 10.1147 3.31987L9.5 4.06397L8.88529 3.31987C8.04706 2.3468 6.98529 1.14478 5.02941 1.14478Z" fill="#B8B9BE"/>
</svg>
